<?xml version="1.0" encoding="UTF-8" standalone="no"?>
<!-- Created with Inkscape (http://www.inkscape.org/) -->

<svg
   width="163.28133mm"
   height="37.249836mm"
   viewBox="0 0 163.28133 37.249836"
   version="1.1"
   id="svg1"
   xml:space="preserve"
   xmlns:xlink="http://www.w3.org/1999/xlink"
   xmlns="http://www.w3.org/2000/svg"
   xmlns:svg="http://www.w3.org/2000/svg"><defs
     id="defs1"><linearGradient
       x1="0"
       y1="0"
       x2="1"
       y2="0"
       gradientUnits="userSpaceOnUse"
       gradientTransform="matrix(-3.9765773,64.61938,-64.61938,-3.9765773,65.9696,87.092467)"
       spreadMethod="pad"
       id="linearGradient3"><stop
         style="stop-opacity:1;stop-color:#ffe700"
         offset="0"
         id="stop1" /><stop
         style="stop-opacity:1;stop-color:#ff6101"
         offset="0.36715421"
         id="stop2" /><stop
         style="stop-color:#ca01ff;stop-opacity:1;"
         offset="1"
         id="stop3" /></linearGradient><linearGradient
       x1="0"
       y1="0"
       x2="1"
       y2="0"
       gradientUnits="userSpaceOnUse"
       gradientTransform="matrix(-8.3954163,37.77937,-37.77937,-8.3954163,66.685633,106.58994)"
       spreadMethod="pad"
       id="linearGradient900"><stop
         style="stop-opacity:1;stop-color:#ff0ab3"
         offset="0"
         id="stop894" /><stop
         style="stop-opacity:1;stop-color:#ff0ab3"
         offset="0.24623305"
         id="stop896" /><stop
         style="stop-opacity:1;stop-color:#421e68"
         offset="1"
         id="stop898" /></linearGradient><linearGradient
       x1="0"
       y1="0"
       x2="1"
       y2="0"
       gradientUnits="userSpaceOnUse"
       gradientTransform="matrix(-3.9765773,64.61938,-64.61938,-3.9765773,65.9696,87.092467)"
       spreadMethod="pad"
       id="linearGradient922"><stop
         style="stop-opacity:1;stop-color:#ffe700"
         offset="0"
         id="stop916" /><stop
         style="stop-opacity:1;stop-color:#ff6101"
         offset="0.94328054"
         id="stop918" /><stop
         style="stop-opacity:1;stop-color:#ff6101"
         offset="1"
         id="stop920" /></linearGradient><linearGradient
       xlink:href="#linearGradient3"
       id="linearGradient1"
       x1="85.906456"
       y1="125.62186"
       x2="183.0648"
       y2="125.92482"
       gradientUnits="userSpaceOnUse"
       gradientTransform="matrix(1.2000347,0,0,1.2000347,-15.196868,-27.659088)" /></defs><g
     id="layer1"
     transform="translate(-43.297633,-104.33767)"><path
       d="m 53.306994,107.51443 c -9.609673,5.59223 -12.866517,17.91547 -7.274284,27.52513 v 0 c 5.59188,9.60967 14.665331,7.28169 24.274998,1.68946 v 0 c 9.609314,-5.59224 16.116652,-12.33065 10.524419,-21.93996 v 0 C 77.093741,108.36462 70.346514,104.7797 63.413372,104.7797 v 0 c -3.437819,-3.6e-4 -6.920794,0.88124 -10.106378,2.73473 m -0.798343,17.75425 c -0.890764,-5.27826 2.665596,-10.27995 7.944563,-11.17071 v 0 c 5.278261,-0.89112 10.279944,2.66594 11.170708,7.94455 v 0 c 0.891116,5.27862 -3.18382,7.21219 -8.462081,8.10296 v 0 c -1.305277,0.22048 -2.562224,0.3563 -3.727802,0.3563 v 0 c -3.548945,0 -6.25475,-1.25941 -6.925388,-5.2331"
       style="fill:url(#linearGradient900);stroke:none;stroke-width:0.352778"
       id="path902" /><path
       d="m 46.027065,114.34703 c -5.59188,9.60967 0.915106,16.34772 10.524779,21.93995 v 0 c 9.609667,5.59224 18.683111,7.92022 24.274991,-1.68945 v 0 c 5.591881,-9.60931 2.335037,-21.9329 -7.274277,-27.52513 v 0 c -3.184878,-1.85314 -6.669264,-2.73473 -10.10673,-2.73473 v 0 c -6.933848,-7.1e-4 -13.680024,3.58457 -17.418763,10.00936 m 17.670999,15.35677 c -5.278967,-0.89112 -9.353197,-2.82469 -8.462433,-8.10295 v 0 c 0.890763,-5.27897 5.892094,-8.83603 11.17106,-7.94491 v 0 c 5.278261,0.89111 8.83532,5.89244 7.944203,11.17106 v 0 c -0.670278,3.97298 -3.377142,5.23275 -6.92538,5.23275 v 0 c -1.165931,0 -2.422173,-0.13582 -3.72745,-0.35595"
       style="fill:url(#linearGradient922);stroke:none;stroke-width:0.352778"
       id="path924" /><path
       d="m 89.118164,114.50198 h 14.167986 v 1.90702 h -5.945394 v 14.84105 H 95.063558 V 116.409 h -5.945394 z m 16.355446,0 h 10.58953 v 1.90702 h -8.32355 v 4.95823 h 7.9758 v 1.90701 h -7.9758 v 6.06879 h 8.52547 v 1.90702 h -10.79145 z m 27.05715,1.29004 v 2.38938 q -1.14421,-1.06569 -2.44546,-1.59292 -1.29004,-0.52723 -2.74835,-0.52723 -2.87173,0 -4.39734,1.76118 -1.52562,1.74996 -1.52562,5.07041 0,3.30923 1.52562,5.07041 1.52561,1.74997 4.39734,1.74997 1.45831,0 2.74835,-0.52724 1.30125,-0.52723 2.44546,-1.59291 v 2.36694 q -1.18908,0.80767 -2.52399,1.21151 -1.32369,0.40384 -2.80443,0.40384 -3.80281,0 -5.99026,-2.32207 -2.18746,-2.33329 -2.18746,-6.36045 0,-4.03838 2.18746,-6.36045 2.18745,-2.33329 5.99026,-2.33329 1.50318,0 2.82687,0.40384 1.33491,0.39262 2.50155,1.18908 z m 3.49993,-1.29004 h 3.05122 l 7.42613,14.01094 v -14.01094 h 2.19868 v 16.74807 h -3.05123 l -7.42613,-14.01094 v 14.01094 h -2.19867 z m 23.98349,1.53683 q -2.4679,0 -3.9262,1.83971 -1.44709,1.8397 -1.44709,5.01432 0,3.1634 1.44709,5.00311 1.4583,1.8397 3.9262,1.8397 2.4679,0 3.90377,-1.8397 1.44709,-1.83971 1.44709,-5.00311 0,-3.17462 -1.44709,-5.01432 -1.43587,-1.83971 -3.90377,-1.83971 z m 0,-1.83971 q 3.52237,0 5.6313,2.36694 2.10893,2.35573 2.10893,6.3268 0,3.95986 -2.10893,6.3268 -2.10893,2.35572 -5.6313,2.35572 -3.53358,0 -5.65373,-2.35572 -2.10893,-2.35572 -2.10893,-6.3268 0,-3.97107 2.10893,-6.3268 2.12015,-2.36694 5.65373,-2.36694 z m 26.52992,9.19854 q 0.72915,0.24679 1.41344,1.05446 0.69549,0.80768 1.39099,2.22111 l 2.29964,4.57684 h -2.43425 l -2.14258,-4.29639 q -0.83012,-1.68266 -1.61536,-2.23233 -0.77402,-0.54967 -2.12015,-0.54967 h -2.4679 v 7.07839 h -2.26598 v -16.74807 h 5.11529 q 2.87173,0 4.28517,1.2003 1.41343,1.2003 1.41343,3.62332 0,1.5817 -0.74037,2.62495 -0.72915,1.04325 -2.13137,1.44709 z m -5.67617,-7.03351 v 5.94539 h 2.84931 q 1.63778,0 2.4679,-0.75159 0.84132,-0.7628 0.84132,-2.23233 0,-1.46952 -0.84132,-2.20989 -0.83012,-0.75158 -2.4679,-0.75158 z m 16.75928,14.88592 -6.3941,-16.74807 h 2.36694 l 5.30598,14.10068 5.31721,-14.10068 h 2.35572 l -6.38289,16.74807 z"
       id="text1"
       style="font-size:22.9739px;fill:url(#linearGradient1);stroke-width:1.91449"
       aria-label="TECNO RV" /></g></svg>
